<svg id="wave" style="transform:rotate(0deg); transition: 0.3s" viewBox="0 0 1440 230" version="1.1" xmlns="http://www.w3.org/2000/svg"><defs><linearGradient id="sw-gradient-0" x1="0" x2="0" y1="1" y2="0"><stop stop-color="rgba(150, 187, 237, 1)" offset="0%"></stop><stop stop-color="rgba(150, 187, 237, 1)" offset="100%"></stop></linearGradient></defs><path style="transform:translate(0, 0px); opacity:1" fill="url(#sw-gradient-0)" d="M0,184L26.7,168.7C53.3,153,107,123,160,122.7C213.3,123,267,153,320,153.3C373.3,153,427,123,480,92C533.3,61,587,31,640,38.3C693.3,46,747,92,800,115C853.3,138,907,138,960,115C1013.3,92,1067,46,1120,53.7C1173.3,61,1227,123,1280,153.3C1333.3,184,1387,184,1440,187.8C1493.3,192,1547,199,1600,176.3C1653.3,153,1707,100,1760,72.8C1813.3,46,1867,46,1920,69C1973.3,92,2027,138,2080,161C2133.3,184,2187,184,2240,164.8C2293.3,146,2347,107,2400,88.2C2453.3,69,2507,69,2560,88.2C2613.3,107,2667,146,2720,153.3C2773.3,161,2827,138,2880,122.7C2933.3,107,2987,100,3040,95.8C3093.3,92,3147,92,3200,76.7C3253.3,61,3307,31,3360,26.8C3413.3,23,3467,46,3520,69C3573.3,92,3627,115,3680,138C3733.3,161,3787,184,3813,195.5L3840,207L3840,230L3813.3,230C3786.7,230,3733,230,3680,230C3626.7,230,3573,230,3520,230C3466.7,230,3413,230,3360,230C3306.7,230,3253,230,3200,230C3146.7,230,3093,230,3040,230C2986.7,230,2933,230,2880,230C2826.7,230,2773,230,2720,230C2666.7,230,2613,230,2560,230C2506.7,230,2453,230,2400,230C2346.7,230,2293,230,2240,230C2186.7,230,2133,230,2080,230C2026.7,230,1973,230,1920,230C1866.7,230,1813,230,1760,230C1706.7,230,1653,230,1600,230C1546.7,230,1493,230,1440,230C1386.7,230,1333,230,1280,230C1226.7,230,1173,230,1120,230C1066.7,230,1013,230,960,230C906.7,230,853,230,800,230C746.7,230,693,230,640,230C586.7,230,533,230,480,230C426.7,230,373,230,320,230C266.7,230,213,230,160,230C106.7,230,53,230,27,230L0,230Z"></path></svg>