<svg width="24" height="21" viewBox="0 0 24 21" fill="none" xmlns="http://www.w3.org/2000/svg">
<path d="M14.4279 18.5493H13.5528C13.4181 18.5493 13.3089 18.4583 13.3089 18.3461C13.3089 18.2339 13.4181 18.1428 13.5528 18.1428H14.4279C15.442 18.1428 16.2669 17.4554 16.2669 16.6103V15.7997C16.2669 15.6875 16.3762 15.5965 16.5108 15.5965C16.6454 15.5965 16.7547 15.6875 16.7547 15.7997V16.6103C16.7547 17.6794 15.7108 18.5493 14.4279 18.5493ZM10.4728 18.5493H9.59764C8.31472 18.5493 7.27081 17.6794 7.27081 16.6103V15.7997C7.27081 15.6875 7.38008 15.5965 7.51472 15.5965C7.64935 15.5965 7.75862 15.6875 7.75862 15.7997V16.6103C7.75862 17.4554 8.5835 18.1428 9.59764 18.1428H10.4728C10.6074 18.1428 10.7167 18.2339 10.7167 18.3461C10.7167 18.4583 10.6074 18.5493 10.4728 18.5493ZM16.5108 13.4359C16.3762 13.4359 16.2669 13.3449 16.2669 13.2327V12.1327C16.2669 12.0205 16.3762 11.9294 16.5108 11.9294C16.6454 11.9294 16.7547 12.0205 16.7547 12.1327V13.2327C16.7547 13.3449 16.6459 13.4359 16.5108 13.4359ZM7.51472 13.4359C7.38008 13.4359 7.27081 13.3449 7.27081 13.2327V12.1327C7.27081 12.0205 7.38008 11.9294 7.51472 11.9294C7.64935 11.9294 7.75862 12.0205 7.75862 12.1327V13.2327C7.75862 13.3449 7.64935 13.4359 7.51472 13.4359ZM16.5108 9.76884C16.3762 9.76884 16.2669 9.67779 16.2669 9.56559V8.46519C16.2669 8.35299 16.3762 8.26193 16.5108 8.26193C16.6454 8.26193 16.7547 8.35299 16.7547 8.46519V9.56519C16.7547 9.67779 16.6459 9.76884 16.5108 9.76884ZM7.51472 9.76884C7.38008 9.76884 7.27081 9.67779 7.27081 9.56559V8.46519C7.27081 8.35299 7.38008 8.26193 7.51472 8.26193C7.64935 8.26193 7.75862 8.35299 7.75862 8.46519V9.56519C7.75862 9.67779 7.64935 9.76884 7.51472 9.76884ZM16.5108 6.10177C16.3762 6.10177 16.2669 6.01071 16.2669 5.89852V5.08795C16.2669 4.24283 15.442 3.55543 14.4279 3.55543H13.5528C13.4181 3.55543 13.3089 3.46437 13.3089 3.35218C13.3089 3.23998 13.4181 3.14893 13.5528 3.14893H14.4279C15.7108 3.14893 16.7547 4.01884 16.7547 5.08795V5.89852C16.7547 6.01071 16.6459 6.10177 16.5108 6.10177ZM7.51472 6.10177C7.38008 6.10177 7.27081 6.01071 7.27081 5.89852V5.08795C7.27081 4.01884 8.31472 3.14893 9.59764 3.14893H10.4728C10.6074 3.14893 10.7167 3.23998 10.7167 3.35218C10.7167 3.46437 10.6074 3.55543 10.4728 3.55543H9.59764C8.5835 3.55543 7.75862 4.24283 7.75862 5.08795V5.89852C7.75862 6.01071 7.64935 6.10177 7.51472 6.10177Z" fill="white"/>
<path d="M16.5107 16.0027C15.5268 16.0027 14.7268 15.3356 14.7268 14.5161C14.7268 13.6966 15.5273 13.0295 16.5107 13.0295C17.4941 13.0295 18.2946 13.6966 18.2946 14.5161C18.2946 15.3356 17.4946 16.0027 16.5107 16.0027ZM16.5107 13.436C15.7961 13.436 15.2146 13.9206 15.2146 14.5161C15.2146 15.1117 15.7961 15.5962 16.5107 15.5962C17.2253 15.5962 17.8068 15.1117 17.8068 14.5161C17.8068 13.9206 17.2258 13.436 16.5107 13.436ZM16.5107 12.3356C15.5268 12.3356 14.7268 11.6686 14.7268 10.8491C14.7268 10.0295 15.5273 9.36247 16.5107 9.36247C17.4941 9.36247 18.2946 10.0295 18.2946 10.8491C18.2946 11.6686 17.4946 12.3356 16.5107 12.3356ZM16.5107 9.76898C15.7961 9.76898 15.2146 10.2535 15.2146 10.8491C15.2146 11.4446 15.7961 11.9291 16.5107 11.9291C17.2253 11.9291 17.8068 11.4446 17.8068 10.8491C17.8073 10.2535 17.2258 9.76898 16.5107 9.76898ZM16.5107 8.66857C15.5268 8.66857 14.7268 8.0015 14.7268 7.18198C14.7268 6.36247 15.5273 5.6954 16.5107 5.6954C17.4941 5.6954 18.2946 6.36247 18.2946 7.18198C18.2946 8.0015 17.4946 8.66857 16.5107 8.66857ZM16.5107 6.1019C15.7961 6.1019 15.2146 6.58645 15.2146 7.18198C15.2146 7.77751 15.7961 8.26206 16.5107 8.26206C17.2253 8.26206 17.8068 7.77751 17.8068 7.18198C17.8068 6.58645 17.2258 6.1019 16.5107 6.1019ZM12.0127 4.83889C11.0288 4.83889 10.2288 4.17182 10.2288 3.35231C10.2288 2.5328 11.0292 1.86572 12.0127 1.86572C12.9961 1.86572 13.7966 2.5328 13.7966 3.35231C13.7966 4.17182 12.9966 4.83889 12.0127 4.83889ZM12.0127 2.27182C11.298 2.27182 10.7166 2.75637 10.7166 3.3519C10.7166 3.94743 11.298 4.43198 12.0127 4.43198C12.7273 4.43198 13.3088 3.94743 13.3088 3.3519C13.3088 2.75637 12.7273 2.27182 12.0127 2.27182ZM12.0127 19.8328C11.0288 19.8328 10.2288 19.1657 10.2288 18.3462C10.2288 17.5263 11.0292 16.8596 12.0127 16.8596C12.9961 16.8596 13.7966 17.5267 13.7966 18.3462C13.7966 19.1657 12.9966 19.8328 12.0127 19.8328ZM12.0127 17.2657C11.298 17.2657 10.7166 17.7503 10.7166 18.3458C10.7166 18.9413 11.298 19.4259 12.0127 19.4259C12.7273 19.4259 13.3088 18.9413 13.3088 18.3458C13.3088 17.7503 12.7273 17.2657 12.0127 17.2657ZM7.51462 16.0027C6.53071 16.0027 5.73071 15.3356 5.73071 14.5161C5.73071 13.6966 6.5312 13.0295 7.51462 13.0295C8.49803 13.0295 9.29852 13.6966 9.29852 14.5161C9.29852 15.3356 8.49803 16.0027 7.51462 16.0027ZM7.51462 13.436C6.79998 13.436 6.21852 13.9206 6.21852 14.5161C6.21852 15.1117 6.79998 15.5962 7.51462 15.5962C8.22925 15.5962 8.81071 15.1117 8.81071 14.5161C8.81071 13.9206 8.22925 13.436 7.51462 13.436ZM7.51462 12.3356C6.53071 12.3356 5.73071 11.6686 5.73071 10.8491C5.73071 10.0295 6.5312 9.36247 7.51462 9.36247C8.49803 9.36247 9.29852 10.0295 9.29852 10.8491C9.29852 11.6686 8.49803 12.3356 7.51462 12.3356ZM7.51462 9.76898C6.79998 9.76898 6.21852 10.2535 6.21852 10.8491C6.21852 11.4446 6.79998 11.9291 7.51462 11.9291C8.22925 11.9291 8.81071 11.4446 8.81071 10.8491C8.81071 10.2535 8.22925 9.76898 7.51462 9.76898ZM7.51462 8.66857C6.53071 8.66857 5.73071 8.0015 5.73071 7.18198C5.73071 6.36247 6.5312 5.6954 7.51462 5.6954C8.49803 5.6954 9.29852 6.36247 9.29852 7.18198C9.29852 8.0015 8.49803 8.66857 7.51462 8.66857ZM7.51462 6.1019C6.79998 6.1019 6.21852 6.58645 6.21852 7.18198C6.21852 7.77751 6.79998 8.26206 7.51462 8.26206C8.22925 8.26206 8.81071 7.77751 8.81071 7.18198C8.81071 6.58645 8.22925 6.1019 7.51462 6.1019ZM19.6556 17.4287C19.521 17.4287 19.4117 17.3377 19.4117 17.2255V4.47263C19.4117 4.36044 19.521 4.26938 19.6556 4.26938C19.7902 4.26938 19.8995 4.36044 19.8995 4.47263V17.2255C19.8995 17.3381 19.7902 17.4287 19.6556 17.4287Z" fill="white"/>
<path d="M19.6556 19.186C19.4839 19.186 19.3224 19.1303 19.2015 19.0295L17.8902 17.9364C17.7029 17.7803 17.6498 17.5567 17.7507 17.3531C17.8522 17.149 18.0795 17.0226 18.3444 17.0226H20.9673C21.2322 17.0226 21.4595 17.1494 21.561 17.3531C21.6624 17.5567 21.6088 17.7807 21.4215 17.9364L20.1098 19.0295C19.9888 19.1303 19.8273 19.186 19.6556 19.186ZM18.3439 17.4287C18.278 17.4287 18.2259 17.4575 18.201 17.5083C18.1761 17.5588 18.1883 17.61 18.2346 17.649L19.5463 18.7421C19.6044 18.7905 19.7068 18.7905 19.7649 18.7421L21.0766 17.649C21.1229 17.6104 21.1351 17.5592 21.1102 17.5083C21.0849 17.4579 21.0332 17.4287 20.9673 17.4287H18.3439ZM20.9673 4.67582H18.3444C18.0795 4.67582 17.8522 4.549 17.7507 4.34534C17.6493 4.14168 17.7029 3.9177 17.8898 3.762L19.2015 2.66891C19.4517 2.45997 19.8595 2.45997 20.1102 2.66891L21.422 3.762C21.6093 3.9181 21.6624 4.14168 21.5615 4.34534C21.4605 4.549 21.2317 4.67582 20.9673 4.67582ZM19.6556 2.91851C19.6161 2.91851 19.5766 2.93111 19.5463 2.95631L18.2346 4.0494C18.1883 4.08802 18.1761 4.13924 18.201 4.19005C18.2259 4.24087 18.278 4.26973 18.3439 4.26973H20.9668C21.0327 4.26973 21.0849 4.24087 21.1098 4.19005C21.1346 4.13924 21.1224 4.08843 21.0761 4.0494L19.7649 2.95631C19.7346 2.93111 19.6951 2.91851 19.6556 2.91851ZM4.36976 17.4287C4.23512 17.4287 4.12585 17.3376 4.12585 17.2254V4.47257C4.12585 4.36038 4.23512 4.26932 4.36976 4.26932C4.50439 4.26932 4.61366 4.36038 4.61366 4.47257V17.2254C4.61366 17.338 4.50439 17.4287 4.36976 17.4287Z" fill="white"/>
<path d="M4.36969 19.186C4.19799 19.186 4.03652 19.1303 3.91555 19.0295L2.60384 17.9364C2.41652 17.7803 2.36335 17.5567 2.46433 17.3531C2.56579 17.149 2.79311 17.0226 3.05799 17.0226H5.68091C5.94579 17.0226 6.17311 17.1494 6.27457 17.3531C6.37604 17.5567 6.32238 17.7807 6.13506 17.9364L4.82335 19.0295C4.70286 19.1303 4.5414 19.186 4.36969 19.186ZM3.05799 17.4287C2.99213 17.4287 2.93994 17.4575 2.91506 17.5083C2.88969 17.5588 2.90238 17.61 2.94872 17.649L4.26043 18.7421C4.31847 18.7905 4.42091 18.7905 4.47896 18.7421L5.79067 17.649C5.83701 17.6104 5.84921 17.5592 5.82433 17.5083C5.79896 17.4579 5.74725 17.4287 5.6814 17.4287H3.05799ZM5.6814 4.67582H3.05799C2.79311 4.67582 2.56579 4.549 2.46433 4.34534C2.36286 4.14127 2.41652 3.9177 2.60335 3.762L3.91506 2.66891C4.16579 2.45997 4.57311 2.45997 4.82384 2.66891L6.13555 3.762C6.32286 3.9181 6.37603 4.14168 6.27506 4.34534C6.17408 4.549 5.94579 4.67582 5.6814 4.67582ZM4.36969 2.91851C4.33018 2.91851 4.29067 2.93111 4.26043 2.95631L2.94872 4.049C2.90238 4.08761 2.89018 4.13883 2.91506 4.18965C2.94043 4.24005 2.99213 4.26932 3.05799 4.26932H5.68091C5.74677 4.26932 5.79896 4.24046 5.82384 4.18965C5.84921 4.13924 5.83652 4.08802 5.79018 4.049L4.47896 2.95631C4.44872 2.93111 4.40921 2.91851 4.36969 2.91851Z" fill="white"/>
</svg>
