<svg width="24" height="21" viewBox="0 0 24 21" fill="none" xmlns="http://www.w3.org/2000/svg">
<path d="M14.4278 18.5493H13.5527C13.4181 18.5493 13.3088 18.4583 13.3088 18.3461C13.3088 18.2339 13.4181 18.1428 13.5527 18.1428H14.4278C15.442 18.1428 16.2668 17.4554 16.2668 16.6103V15.7997C16.2668 15.6875 16.3761 15.5965 16.5108 15.5965C16.6454 15.5965 16.7547 15.6875 16.7547 15.7997V16.6103C16.7547 17.6794 15.7108 18.5493 14.4278 18.5493ZM10.4727 18.5493H9.59758C8.31465 18.5493 7.27075 17.6794 7.27075 16.6103V15.7997C7.27075 15.6875 7.38002 15.5965 7.51465 15.5965C7.64929 15.5965 7.75856 15.6875 7.75856 15.7997V16.6103C7.75856 17.4554 8.58343 18.1428 9.59758 18.1428H10.4727C10.6073 18.1428 10.7166 18.2339 10.7166 18.3461C10.7166 18.4583 10.6073 18.5493 10.4727 18.5493ZM16.5108 13.4359C16.3761 13.4359 16.2668 13.3449 16.2668 13.2327V12.1327C16.2668 12.0205 16.3761 11.9294 16.5108 11.9294C16.6454 11.9294 16.7547 12.0205 16.7547 12.1327V13.2327C16.7547 13.3449 16.6459 13.4359 16.5108 13.4359ZM7.51465 13.4359C7.38002 13.4359 7.27075 13.3449 7.27075 13.2327V12.1327C7.27075 12.0205 7.38002 11.9294 7.51465 11.9294C7.64929 11.9294 7.75856 12.0205 7.75856 12.1327V13.2327C7.75856 13.3449 7.64929 13.4359 7.51465 13.4359ZM16.5108 9.76884C16.3761 9.76884 16.2668 9.67779 16.2668 9.56559V8.46519C16.2668 8.35299 16.3761 8.26193 16.5108 8.26193C16.6454 8.26193 16.7547 8.35299 16.7547 8.46519V9.56519C16.7547 9.67779 16.6459 9.76884 16.5108 9.76884ZM7.51465 9.76884C7.38002 9.76884 7.27075 9.67779 7.27075 9.56559V8.46519C7.27075 8.35299 7.38002 8.26193 7.51465 8.26193C7.64929 8.26193 7.75856 8.35299 7.75856 8.46519V9.56519C7.75856 9.67779 7.64929 9.76884 7.51465 9.76884ZM16.5108 6.10177C16.3761 6.10177 16.2668 6.01071 16.2668 5.89852V5.08795C16.2668 4.24283 15.442 3.55543 14.4278 3.55543H13.5527C13.4181 3.55543 13.3088 3.46437 13.3088 3.35218C13.3088 3.23998 13.4181 3.14893 13.5527 3.14893H14.4278C15.7108 3.14893 16.7547 4.01884 16.7547 5.08795V5.89852C16.7547 6.01071 16.6459 6.10177 16.5108 6.10177ZM7.51465 6.10177C7.38002 6.10177 7.27075 6.01071 7.27075 5.89852V5.08795C7.27075 4.01884 8.31465 3.14893 9.59758 3.14893H10.4727C10.6073 3.14893 10.7166 3.23998 10.7166 3.35218C10.7166 3.46437 10.6073 3.55543 10.4727 3.55543H9.59758C8.58343 3.55543 7.75856 4.24283 7.75856 5.08795V5.89852C7.75856 6.01071 7.64929 6.10177 7.51465 6.10177Z" fill="black"/>
<path d="M16.5107 16.0027C15.5268 16.0027 14.7268 15.3356 14.7268 14.5161C14.7268 13.6966 15.5273 13.0295 16.5107 13.0295C17.4941 13.0295 18.2946 13.6966 18.2946 14.5161C18.2946 15.3356 17.4946 16.0027 16.5107 16.0027ZM16.5107 13.436C15.7961 13.436 15.2146 13.9206 15.2146 14.5161C15.2146 15.1117 15.7961 15.5962 16.5107 15.5962C17.2253 15.5962 17.8068 15.1117 17.8068 14.5161C17.8068 13.9206 17.2258 13.436 16.5107 13.436ZM16.5107 12.3356C15.5268 12.3356 14.7268 11.6686 14.7268 10.8491C14.7268 10.0295 15.5273 9.36247 16.5107 9.36247C17.4941 9.36247 18.2946 10.0295 18.2946 10.8491C18.2946 11.6686 17.4946 12.3356 16.5107 12.3356ZM16.5107 9.76898C15.7961 9.76898 15.2146 10.2535 15.2146 10.8491C15.2146 11.4446 15.7961 11.9291 16.5107 11.9291C17.2253 11.9291 17.8068 11.4446 17.8068 10.8491C17.8073 10.2535 17.2258 9.76898 16.5107 9.76898ZM16.5107 8.66857C15.5268 8.66857 14.7268 8.0015 14.7268 7.18198C14.7268 6.36247 15.5273 5.6954 16.5107 5.6954C17.4941 5.6954 18.2946 6.36247 18.2946 7.18198C18.2946 8.0015 17.4946 8.66857 16.5107 8.66857ZM16.5107 6.1019C15.7961 6.1019 15.2146 6.58645 15.2146 7.18198C15.2146 7.77751 15.7961 8.26206 16.5107 8.26206C17.2253 8.26206 17.8068 7.77751 17.8068 7.18198C17.8068 6.58645 17.2258 6.1019 16.5107 6.1019ZM12.0127 4.83889C11.0288 4.83889 10.2288 4.17182 10.2288 3.35231C10.2288 2.5328 11.0292 1.86572 12.0127 1.86572C12.9961 1.86572 13.7966 2.5328 13.7966 3.35231C13.7966 4.17182 12.9966 4.83889 12.0127 4.83889ZM12.0127 2.27182C11.298 2.27182 10.7166 2.75637 10.7166 3.3519C10.7166 3.94743 11.298 4.43198 12.0127 4.43198C12.7273 4.43198 13.3088 3.94743 13.3088 3.3519C13.3088 2.75637 12.7273 2.27182 12.0127 2.27182ZM12.0127 19.8328C11.0288 19.8328 10.2288 19.1657 10.2288 18.3462C10.2288 17.5263 11.0292 16.8596 12.0127 16.8596C12.9961 16.8596 13.7966 17.5267 13.7966 18.3462C13.7966 19.1657 12.9966 19.8328 12.0127 19.8328ZM12.0127 17.2657C11.298 17.2657 10.7166 17.7503 10.7166 18.3458C10.7166 18.9413 11.298 19.4259 12.0127 19.4259C12.7273 19.4259 13.3088 18.9413 13.3088 18.3458C13.3088 17.7503 12.7273 17.2657 12.0127 17.2657ZM7.51462 16.0027C6.53071 16.0027 5.73071 15.3356 5.73071 14.5161C5.73071 13.6966 6.5312 13.0295 7.51462 13.0295C8.49803 13.0295 9.29852 13.6966 9.29852 14.5161C9.29852 15.3356 8.49803 16.0027 7.51462 16.0027ZM7.51462 13.436C6.79998 13.436 6.21852 13.9206 6.21852 14.5161C6.21852 15.1117 6.79998 15.5962 7.51462 15.5962C8.22925 15.5962 8.81071 15.1117 8.81071 14.5161C8.81071 13.9206 8.22925 13.436 7.51462 13.436ZM7.51462 12.3356C6.53071 12.3356 5.73071 11.6686 5.73071 10.8491C5.73071 10.0295 6.5312 9.36247 7.51462 9.36247C8.49803 9.36247 9.29852 10.0295 9.29852 10.8491C9.29852 11.6686 8.49803 12.3356 7.51462 12.3356ZM7.51462 9.76898C6.79998 9.76898 6.21852 10.2535 6.21852 10.8491C6.21852 11.4446 6.79998 11.9291 7.51462 11.9291C8.22925 11.9291 8.81071 11.4446 8.81071 10.8491C8.81071 10.2535 8.22925 9.76898 7.51462 9.76898ZM7.51462 8.66857C6.53071 8.66857 5.73071 8.0015 5.73071 7.18198C5.73071 6.36247 6.5312 5.6954 7.51462 5.6954C8.49803 5.6954 9.29852 6.36247 9.29852 7.18198C9.29852 8.0015 8.49803 8.66857 7.51462 8.66857ZM7.51462 6.1019C6.79998 6.1019 6.21852 6.58645 6.21852 7.18198C6.21852 7.77751 6.79998 8.26206 7.51462 8.26206C8.22925 8.26206 8.81071 7.77751 8.81071 7.18198C8.81071 6.58645 8.22925 6.1019 7.51462 6.1019ZM19.6556 17.4287C19.521 17.4287 19.4117 17.3377 19.4117 17.2255V4.47263C19.4117 4.36044 19.521 4.26938 19.6556 4.26938C19.7902 4.26938 19.8995 4.36044 19.8995 4.47263V17.2255C19.8995 17.3381 19.7902 17.4287 19.6556 17.4287Z" fill="black"/>
<path d="M19.6557 19.186C19.484 19.186 19.3226 19.1303 19.2016 19.0295L17.8904 17.9364C17.703 17.7803 17.6499 17.5567 17.7509 17.3531C17.8523 17.149 18.0796 17.0226 18.3445 17.0226H20.9674C21.2323 17.0226 21.4596 17.1494 21.5611 17.3531C21.6626 17.5567 21.6089 17.7807 21.4216 17.9364L20.1099 19.0295C19.9889 19.1303 19.8274 19.186 19.6557 19.186ZM18.344 17.4287C18.2782 17.4287 18.226 17.4575 18.2011 17.5083C18.1762 17.5588 18.1884 17.61 18.2348 17.649L19.5465 18.7421C19.6045 18.7905 19.707 18.7905 19.765 18.7421L21.0767 17.649C21.123 17.6104 21.1352 17.5592 21.1104 17.5083C21.085 17.4579 21.0333 17.4287 20.9674 17.4287H18.344ZM20.9674 4.67582H18.3445C18.0796 4.67582 17.8523 4.549 17.7509 4.34534C17.6494 4.14168 17.703 3.9177 17.8899 3.762L19.2016 2.66891C19.4518 2.45997 19.8596 2.45997 20.1104 2.66891L21.4221 3.762C21.6094 3.9181 21.6626 4.14168 21.5616 4.34534C21.4606 4.549 21.2318 4.67582 20.9674 4.67582ZM19.6557 2.91851C19.6162 2.91851 19.5767 2.93111 19.5465 2.95631L18.2348 4.0494C18.1884 4.08802 18.1762 4.13924 18.2011 4.19005C18.226 4.24087 18.2782 4.26973 18.344 4.26973H20.967C21.0328 4.26973 21.085 4.24087 21.1099 4.19005C21.1348 4.13924 21.1226 4.08843 21.0762 4.0494L19.765 2.95631C19.7348 2.93111 19.6952 2.91851 19.6557 2.91851ZM4.36988 17.4287C4.23524 17.4287 4.12598 17.3376 4.12598 17.2254V4.47257C4.12598 4.36038 4.23524 4.26932 4.36988 4.26932C4.50451 4.26932 4.61378 4.36038 4.61378 4.47257V17.2254C4.61378 17.338 4.50451 17.4287 4.36988 17.4287Z" fill="black"/>
<path d="M4.36975 19.186C4.19805 19.186 4.03658 19.1303 3.91561 19.0295L2.6039 17.9364C2.41658 17.7803 2.36341 17.5567 2.46439 17.3531C2.56585 17.149 2.79317 17.0226 3.05805 17.0226H5.68097C5.94585 17.0226 6.17317 17.1494 6.27463 17.3531C6.3761 17.5567 6.32244 17.7807 6.13512 17.9364L4.82341 19.0295C4.70293 19.1303 4.54146 19.186 4.36975 19.186ZM3.05805 17.4287C2.99219 17.4287 2.94 17.4575 2.91512 17.5083C2.88975 17.5588 2.90244 17.61 2.94878 17.649L4.26049 18.7421C4.31853 18.7905 4.42097 18.7905 4.47902 18.7421L5.79073 17.649C5.83707 17.6104 5.84927 17.5592 5.82439 17.5083C5.79902 17.4579 5.74732 17.4287 5.68146 17.4287H3.05805ZM5.68146 4.67582H3.05805C2.79317 4.67582 2.56585 4.549 2.46439 4.34534C2.36293 4.14127 2.41658 3.9177 2.60341 3.762L3.91512 2.66891C4.16585 2.45997 4.57317 2.45997 4.8239 2.66891L6.13561 3.762C6.32293 3.9181 6.3761 4.14168 6.27512 4.34534C6.17414 4.549 5.94585 4.67582 5.68146 4.67582ZM4.36975 2.91851C4.33024 2.91851 4.29073 2.93111 4.26049 2.95631L2.94878 4.049C2.90244 4.08761 2.89024 4.13883 2.91512 4.18965C2.94049 4.24005 2.99219 4.26932 3.05805 4.26932H5.68097C5.74683 4.26932 5.79902 4.24046 5.8239 4.18965C5.84927 4.13924 5.83658 4.08802 5.79024 4.049L4.47902 2.95631C4.44878 2.93111 4.40927 2.91851 4.36975 2.91851Z" fill="black"/>
</svg>
