<svg width="24" height="25" viewBox="0 0 24 25" fill="none" xmlns="http://www.w3.org/2000/svg">
<path d="M6 11.0186V14.0186C6 14.6186 6.3 15.7186 8.4 16.4186C9.4 16.8186 10.7 17.0186 12 17.0186C13.3 17.0186 14.6 16.8186 15.6 16.4186C17.7 15.7186 18 14.6186 18 14.0186V11.0186C18 8.91855 14.9 8.01855 12 8.01855C9.1 8.01855 6 8.91855 6 11.0186ZM12 10.0186C14.3 10.0186 15.7 10.7186 16 11.0186L15.9 11.1186C15.9 11.1186 15.8 11.1186 15.8 11.2186C15.7 11.2186 15.7 11.3186 15.6 11.3186C15.6 11.3186 15.5 11.3186 15.5 11.4186C15.4 11.5186 15.2 11.5186 15.1 11.6186C13.5 12.2186 10.8 12.2186 9.2 11.6186C9 11.5186 8.9 11.5186 8.8 11.4186C8.7 11.4186 8.7 11.3186 8.6 11.3186H8.5C8.2 11.1186 8.1 11.1186 8 11.0186C8.3 10.7186 9.7 10.0186 12 10.0186ZM14.9 14.6186C13.3 15.2186 10.6 15.2186 9 14.6186C8.3 14.3186 8 14.0186 8 14.0186V13.3186C8.1 13.3186 8.2 13.4186 8.4 13.4186C9.4 13.8186 10.7 14.0186 12 14.0186C13.3 14.0186 14.6 13.8186 15.6 13.4186C15.7 13.4186 15.9 13.3186 16 13.3186V13.9186C16 14.0186 15.7 14.3186 14.9 14.6186Z" fill="black"/>
<path d="M20.2 8.11856C19.7 8.31855 19.4 8.91855 19.6 9.41855C19.9 10.3186 20.1 11.2186 20.1 12.1186C20.1 16.5186 16.5 20.1186 12.1 20.1186C10.7 20.1186 9.4 19.7186 8.2 19.1186C8.6 18.9186 9 18.5186 9 18.0186C9 17.4186 8.6 17.0186 8 17.0186H5.3C5.2 17.0186 5.1 17.0186 5 17.0186H4.9C4.7 17.1186 4.5 17.2186 4.4 17.3186C4.1 17.7186 3.9 18.0186 5 21.2186C5.2 21.7186 5.6 22.0186 6 22.0186C6.1 22.0186 6.2 22.0186 6.3 21.9186C6.8 21.7186 7.1 21.2186 6.9 20.6186C6.9 20.6186 6.9 20.6186 6.9 20.5186C8.4 21.5186 10.2 22.0186 12 22.0186C17.5 22.0186 22 17.5186 22 12.0186C22 10.9186 21.8 9.71855 21.4 8.71855C21.2 8.11855 20.7 7.91856 20.2 8.11856ZM3.3 15.3186C3.4 15.3186 3.5 15.3186 3.6 15.3186C4.1 15.2186 4.5 14.6186 4.3 14.1186C4.1 13.4186 4 12.7186 4 12.0186C4 7.61855 7.6 4.01855 12 4.01855C13.4 4.01855 14.7 4.41855 15.9 5.01855C15.4 5.11855 15 5.51855 15 6.01855C15 6.61855 15.4 7.01855 16 7.01855H18.6C18.6 7.01855 18.6 7.01855 18.7 7.01855H19C19.3 7.01855 19.6 6.81855 19.8 6.61855C20 6.41855 20 6.01855 19.9 5.71855L18.9 2.71855C18.7 2.21855 18.2 1.91855 17.6 2.11855C17.1 2.31855 16.8 2.81855 17 3.41855V3.51855C15.6 2.51855 13.8 2.01855 12 2.01855C6.5 2.01855 2 6.51855 2 12.0186C2 12.9186 2.1 13.7186 2.3 14.6186C2.4 15.0186 2.9 15.3186 3.3 15.3186Z" fill="black"/>
</svg>
