<svg width="24" height="24" viewBox="0 0 24 24" fill="none" xmlns="http://www.w3.org/2000/svg">
<g clip-path="url(#clip0_502_476)">
<path d="M22.129 24.0001H1.87146C1.39146 24.0001 1.00146 23.6101 1.00146 23.1301V8.05506C1.00146 7.57506 1.39146 7.18506 1.87146 7.18506H22.129C22.609 7.18506 22.999 7.57506 22.999 8.05506V23.1301C22.999 23.6101 22.609 24.0001 22.129 24.0001ZM2.74146 22.2601H21.2627V8.92506H2.74146V22.2601Z" fill="black"/>
<path d="M17.4637 8.92483H3.84372C3.72943 8.9252 3.6162 8.90284 3.51062 8.85907C3.40505 8.81529 3.30922 8.75097 3.22872 8.66983L2.84997 8.29108C2.68497 8.12983 2.59497 7.90858 2.59497 7.67608C2.59497 7.44358 2.68497 7.22608 2.84997 7.06108L9.66372 0.254834C10.005 -0.082666 10.5525 -0.082666 10.8937 0.254834L18.0787 7.43983C18.3262 7.68733 18.4012 8.06234 18.2662 8.38858C18.1312 8.71108 17.8162 8.92483 17.4637 8.92483ZM5.18997 7.18483H15.3675L10.2787 2.09983L5.18997 7.18483ZM11.2462 14.1861H4.54872C4.06872 14.1861 3.67872 13.7961 3.67872 13.3161C3.67872 12.8361 4.06872 12.4461 4.54872 12.4461H11.2462C11.7262 12.4461 12.1162 12.8361 12.1162 13.3161C12.1162 13.7961 11.7262 14.1861 11.2462 14.1861Z" fill="black"/>
<path d="M17.8613 14.0399C18.613 14.0399 19.2225 13.4304 19.2225 12.6786C19.2225 11.9268 18.613 11.3174 17.8613 11.3174C17.1095 11.3174 16.5 11.9268 16.5 12.6786C16.5 13.4304 17.1095 14.0399 17.8613 14.0399Z" fill="black"/>
<path d="M17.8613 19.8714C18.613 19.8714 19.2225 19.262 19.2225 18.5102C19.2225 17.7584 18.613 17.1489 17.8613 17.1489C17.1095 17.1489 16.5 17.7584 16.5 18.5102C16.5 19.262 17.1095 19.8714 17.8613 19.8714Z" fill="black"/>
</g>
<defs>
<clipPath id="clip0_502_476">
<rect width="24" height="24" fill="white"/>
</clipPath>
</defs>
</svg>
