<svg width="50" height="50" viewBox="0 0 50 50" fill="none" xmlns="http://www.w3.org/2000/svg">
<path fill-rule="evenodd" clip-rule="evenodd" d="M5.14374 14.5186C5.28888 14.3731 5.4613 14.2577 5.65113 14.1789C5.84096 14.1001 6.04446 14.0596 6.24999 14.0596C6.45551 14.0596 6.65901 14.1001 6.84884 14.1789C7.03867 14.2577 7.21109 14.3731 7.35624 14.5186L25 32.1655L42.6437 14.5186C42.789 14.3733 42.9615 14.2581 43.1513 14.1795C43.3411 14.1009 43.5445 14.0604 43.75 14.0604C43.9554 14.0604 44.1589 14.1009 44.3487 14.1795C44.5385 14.2581 44.711 14.3733 44.8562 14.5186C45.0015 14.6639 45.1167 14.8364 45.1954 15.0262C45.274 15.216 45.3145 15.4194 45.3145 15.6249C45.3145 15.8303 45.274 16.0338 45.1954 16.2236C45.1167 16.4134 45.0015 16.5858 44.8562 16.7311L26.1062 35.4811C25.9611 35.6266 25.7887 35.7421 25.5988 35.8208C25.409 35.8996 25.2055 35.9402 25 35.9402C24.7945 35.9402 24.591 35.8996 24.4011 35.8208C24.2113 35.7421 24.0389 35.6266 23.8937 35.4811L5.14374 16.7311C4.99823 16.586 4.88278 16.4135 4.80401 16.2237C4.72524 16.0339 4.68469 15.8304 4.68469 15.6249C4.68469 15.4193 4.72524 15.2158 4.80401 15.026C4.88278 14.8362 4.99823 14.6638 5.14374 14.5186Z" fill="white"/>
</svg>
