<svg width="50" height="50" viewBox="0 0 50 50" fill="none" xmlns="http://www.w3.org/2000/svg">
<path fill-rule="evenodd" clip-rule="evenodd" d="M5.14386 14.5186C5.289 14.3731 5.46142 14.2577 5.65125 14.1789C5.84108 14.1001 6.04458 14.0596 6.25011 14.0596C6.45563 14.0596 6.65913 14.1001 6.84896 14.1789C7.03879 14.2577 7.21122 14.3731 7.35636 14.5186L25.0001 32.1655L42.6439 14.5186C42.7891 14.3733 42.9616 14.2581 43.1514 14.1795C43.3412 14.1009 43.5447 14.0604 43.7501 14.0604C43.9556 14.0604 44.159 14.1009 44.3488 14.1795C44.5386 14.2581 44.7111 14.3733 44.8564 14.5186C45.0016 14.6639 45.1169 14.8364 45.1955 15.0262C45.2741 15.216 45.3146 15.4194 45.3146 15.6249C45.3146 15.8303 45.2741 16.0338 45.1955 16.2236C45.1169 16.4134 45.0016 16.5858 44.8564 16.7311L26.1064 35.4811C25.9612 35.6266 25.7888 35.7421 25.599 35.8208C25.4091 35.8996 25.2056 35.9402 25.0001 35.9402C24.7946 35.9402 24.5911 35.8996 24.4013 35.8208C24.2114 35.7421 24.039 35.6266 23.8939 35.4811L5.14386 16.7311C4.99835 16.586 4.8829 16.4135 4.80413 16.2237C4.72536 16.0339 4.68481 15.8304 4.68481 15.6249C4.68481 15.4193 4.72536 15.2158 4.80413 15.026C4.8829 14.8362 4.99835 14.6638 5.14386 14.5186Z" fill="black"/>
</svg>
