<svg width="42" height="22" viewBox="0 0 42 22" fill="none" xmlns="http://www.w3.org/2000/svg">
<path fill-rule="evenodd" clip-rule="evenodd" d="M1.14386 21.4814C1.289 21.6269 1.46142 21.7423 1.65125 21.8211C1.84108 21.8999 2.04458 21.9404 2.25011 21.9404C2.45563 21.9404 2.65913 21.8999 2.84896 21.8211C3.03879 21.7423 3.21122 21.6269 3.35636 21.4814L21.0001 3.83451L38.6439 21.4814C38.7891 21.6267 38.9616 21.7419 39.1514 21.8205C39.3412 21.8991 39.5447 21.9396 39.7501 21.9396C39.9556 21.9396 40.159 21.8991 40.3488 21.8205C40.5386 21.7419 40.7111 21.6267 40.8564 21.4814C41.0016 21.3361 41.1169 21.1636 41.1955 20.9738C41.2741 20.784 41.3146 20.5806 41.3146 20.3751C41.3146 20.1697 41.2741 19.9662 41.1955 19.7764C41.1169 19.5866 41.0016 19.4142 40.8564 19.2689L22.1064 0.518887C21.9612 0.373377 21.7888 0.257931 21.599 0.179161C21.4091 0.100391 21.2056 0.059845 21.0001 0.059845C20.7946 0.059845 20.5911 0.100391 20.4013 0.179161C20.2114 0.257931 20.039 0.373377 19.8939 0.518887L1.14386 19.2689C0.998348 19.414 0.882901 19.5865 0.804131 19.7763C0.725361 19.9661 0.684814 20.1696 0.684814 20.3751C0.684814 20.5807 0.725361 20.7842 0.804131 20.974C0.882901 21.1638 0.998348 21.3362 1.14386 21.4814Z" fill="black"/>
</svg>
