<svg width="60" height="60" viewBox="0 0 60 60" fill="none" xmlns="http://www.w3.org/2000/svg">
<g clip-path="url(#clip0_609_3854)">
<path d="M10.7143 8.57185C10.7143 10.179 9.99996 11.4067 8.57139 12.2549V54.6433C8.57139 54.9334 8.46537 55.1846 8.25331 55.3966C8.04126 55.6087 7.79014 55.7147 7.49996 55.7147H5.35711C5.06693 55.7147 4.81581 55.6087 4.60376 55.3966C4.39171 55.1846 4.28568 54.9334 4.28568 54.6433V12.2549C2.85711 11.4067 2.14282 10.179 2.14282 8.57185C2.14282 7.38881 2.56135 6.37877 3.3984 5.54171C4.23546 4.70466 5.2455 4.28613 6.42854 4.28613C7.61157 4.28613 8.62162 4.70466 9.45867 5.54171C10.2957 6.37877 10.7143 7.38881 10.7143 8.57185ZM60 10.7147V36.2616C60 36.8196 59.8605 37.2493 59.5814 37.5506C59.3024 37.852 58.8616 38.1589 58.2589 38.4714C53.4598 41.0607 49.3415 42.3553 45.904 42.3553C44.5424 42.3553 43.164 42.1098 41.7689 41.6187C40.3738 41.1276 39.1629 40.5919 38.1361 40.0116C37.1093 39.4312 35.8203 38.8955 34.2689 38.4044C32.7176 37.9134 31.1272 37.6678 29.4977 37.6678C25.212 37.6678 20.0334 39.2973 13.962 42.5562C13.5826 42.7571 13.2143 42.8576 12.8571 42.8576C12.2768 42.8576 11.7745 42.6455 11.3504 42.2214C10.9263 41.7973 10.7143 41.2951 10.7143 40.7147V15.871C10.7143 15.1567 11.0602 14.5428 11.7522 14.0294C12.2209 13.7169 13.1026 13.237 14.3973 12.5897C19.6651 9.91113 24.3638 8.57185 28.4933 8.57185C30.8817 8.57185 33.1138 8.89551 35.1897 9.54283C37.2656 10.1901 39.7098 11.1723 42.5223 12.4893C43.3705 12.9134 44.3526 13.1254 45.4687 13.1254C46.6741 13.1254 47.9855 12.891 49.4029 12.4223C50.8203 11.9535 52.048 11.429 53.0859 10.8486C54.1238 10.2683 55.106 9.74372 56.0323 9.27497C56.9587 8.80622 57.5669 8.57185 57.8571 8.57185C58.4375 8.57185 58.9397 8.7839 59.3638 9.20801C59.7879 9.63211 60 10.1343 60 10.7147Z" fill="black"/>
</g>
<defs>
<clipPath id="clip0_609_3854">
<rect width="60" height="60" fill="white"/>
</clipPath>
</defs>
</svg>
