<svg width="29" height="29" viewBox="0 0 29 29" fill="none" xmlns="http://www.w3.org/2000/svg">
<path d="M1.26164 0.0186193C1.12938 0.020726 1.00334 0.0751581 0.911125 0.169996C0.818911 0.264835 0.768035 0.39235 0.769639 0.524619V27.3946C0.745788 27.4825 0.746409 27.5753 0.771435 27.6629C0.796461 27.7505 0.844941 27.8296 0.911639 27.8916C0.973696 27.9557 1.05176 28.002 1.13775 28.0257C1.22373 28.0495 1.3145 28.0498 1.40064 28.0266H28.2696C28.4022 28.0266 28.5294 27.9739 28.6232 27.8802C28.717 27.7864 28.7696 27.6592 28.7696 27.5266C28.7696 27.394 28.717 27.2668 28.6232 27.1731C28.5294 27.0793 28.4022 27.0266 28.2696 27.0266H1.76964V0.524619C1.77045 0.457776 1.75785 0.39145 1.73258 0.329561C1.70731 0.267673 1.66989 0.21148 1.62253 0.164305C1.57517 0.117129 1.51883 0.0799304 1.45684 0.0549072C1.39485 0.029884 1.32848 0.0175448 1.26164 0.0186193ZM27.2776 6.04462C26.4546 6.04462 25.7776 6.72162 25.7776 7.54462C25.7776 7.80162 25.8506 8.04062 25.9676 8.25362L18.8516 16.1596C18.658 16.0784 18.4492 16.0396 18.2394 16.0456C18.0295 16.0516 17.8233 16.1024 17.6346 16.1946L16.3726 14.9326C16.7806 13.9436 16.9006 12.8266 16.6096 11.7176C15.9056 9.04162 13.1656 7.45162 10.5056 8.17762C7.84564 8.90262 6.25664 11.6746 6.96064 14.3506C7.17277 15.1357 7.57533 15.8563 8.13264 16.4486L4.99564 19.2376C4.77675 19.1129 4.52954 19.0465 4.27764 19.0446C3.45464 19.0446 2.77764 19.7216 2.77764 20.5446C2.77764 21.3666 3.45464 22.0446 4.27764 22.0446C5.09964 22.0446 5.77764 21.3666 5.77764 20.5446C5.77677 20.3513 5.73804 20.16 5.66364 19.9816L8.88664 17.1166C9.53115 17.5892 10.2805 17.8987 11.0706 18.0186L11.4976 19.6456C11.5143 19.7097 11.5436 19.7697 11.5837 19.8224C11.6238 19.875 11.674 19.9192 11.7313 19.9523C11.7886 19.9854 11.8519 20.0068 11.9175 20.0153C11.9831 20.0238 12.0498 20.0191 12.1136 20.0016L12.1336 19.9956L13.4496 25.0016C13.5525 25.3772 13.7995 25.697 14.1371 25.8912C14.4746 26.0855 14.8752 26.1384 15.2516 26.0386C15.2523 26.0386 15.253 26.0386 15.2536 26.0386C15.6299 25.9343 15.9503 25.6867 16.146 25.3488C16.3417 25.011 16.3973 24.6099 16.3006 24.2316L15.9216 22.7966L15.7246 22.0486L15.4946 21.1656L15.2206 20.1256L14.9826 19.2196C15.1083 19.1839 15.215 19.1003 15.2799 18.9869C15.3447 18.8734 15.3626 18.7391 15.3296 18.6126L14.8926 16.9486C15.2786 16.6346 15.6006 16.2586 15.8766 15.8506L16.9296 16.9036C16.8314 17.1028 16.7795 17.3216 16.7776 17.5436C16.7776 18.3666 17.4546 19.0436 18.2776 19.0436C19.0996 19.0436 19.7776 18.3666 19.7776 17.5436C19.7776 17.2866 19.7046 17.0456 19.5876 16.8336L26.7046 8.92662C26.8816 9.00062 27.0746 9.04462 27.2776 9.04462C28.0996 9.04462 28.7776 8.36662 28.7776 7.54462C28.7776 6.72162 28.0996 6.04462 27.2776 6.04462ZM27.2776 7.04462C27.5596 7.04462 27.7776 7.26262 27.7776 7.54462C27.7776 7.82662 27.5596 8.04462 27.2776 8.04462C27.2117 8.04556 27.1463 8.03327 27.0852 8.00848C27.0241 7.98369 26.9686 7.94689 26.922 7.90027C26.8754 7.85365 26.8386 7.79816 26.8138 7.73707C26.789 7.67598 26.7767 7.61054 26.7776 7.54462C26.7776 7.26262 26.9956 7.04462 27.2776 7.04462ZM11.5606 9.00962C12.4807 8.95322 13.3916 9.21905 14.1369 9.76142C14.8822 10.3038 15.4153 11.0888 15.6446 11.9816C15.8311 12.699 15.8169 13.4538 15.6036 14.1636L14.6246 13.1846C14.7196 12.9896 14.7776 12.7746 14.7776 12.5446C14.7776 11.7216 14.0996 11.0446 13.2776 11.0446C12.4546 11.0446 11.7776 11.7216 11.7776 12.5446C11.7776 12.7436 11.8186 12.9326 11.8906 13.1066L8.87664 15.7866C8.42429 15.3072 8.09788 14.7231 7.92664 14.0866C7.35864 11.9306 8.62664 9.72662 10.7616 9.14362C11.0286 9.07062 11.2956 9.02562 11.5606 9.00962ZM13.2776 12.0446C13.5596 12.0446 13.7776 12.2626 13.7776 12.5446C13.7776 12.8266 13.5596 13.0446 13.2776 13.0446C13.1553 13.0436 13.0378 12.9973 12.9476 12.9146C12.93 12.8909 12.9102 12.8688 12.8886 12.8486C12.8292 12.7759 12.7917 12.6877 12.7807 12.5944C12.7697 12.5011 12.7855 12.4066 12.8264 12.3221C12.8673 12.2375 12.9315 12.1663 13.0114 12.117C13.0913 12.0677 13.1837 12.0422 13.2776 12.0436V12.0446ZM12.5606 13.8506C12.7746 13.9706 13.0166 14.0446 13.2776 14.0446C13.5076 14.0446 13.7226 13.9856 13.9176 13.8916L15.1696 15.1436C14.6393 16.0177 13.7945 16.6557 12.8086 16.9266C12.2773 17.0719 11.7213 17.1037 11.1769 17.02C10.6325 16.9362 10.1118 16.7388 9.64864 16.4406L12.5606 13.8506ZM18.2776 17.0446C18.5596 17.0446 18.7776 17.2626 18.7776 17.5446C18.7776 17.8266 18.5596 18.0446 18.2776 18.0446C18.2117 18.0456 18.1463 18.0333 18.0852 18.0085C18.0241 17.9837 17.9686 17.9469 17.922 17.9003C17.8754 17.8537 17.8386 17.7982 17.8138 17.7371C17.789 17.676 17.7767 17.6105 17.7776 17.5446C17.7776 17.2626 17.9956 17.0446 18.2776 17.0446ZM14.0116 17.5286L14.2366 18.3886L12.3366 18.9036L12.1136 18.0536C12.775 18.0071 13.4204 17.8286 14.0116 17.5286ZM14.0176 19.4836L14.2536 20.3826L14.5276 21.4216L14.7576 22.3016L14.9546 23.0506L15.3346 24.4876C15.3512 24.5484 15.3554 24.6119 15.3471 24.6744C15.3388 24.7369 15.3181 24.797 15.2862 24.8514C15.2544 24.9058 15.212 24.9533 15.1616 24.9911C15.1112 25.0289 15.0538 25.0563 14.9926 25.0716C14.9334 25.0908 14.8708 25.0975 14.8088 25.0913C14.7468 25.085 14.6868 25.066 14.6325 25.0353C14.5783 25.0047 14.531 24.9631 14.4937 24.9132C14.4563 24.8634 14.4298 24.8063 14.4156 24.7456L13.0976 19.7336L14.0176 19.4836ZM4.27764 20.0436C4.41764 20.0436 4.54264 20.0976 4.63264 20.1866C4.72264 20.2766 4.77764 20.4036 4.77764 20.5446C4.77764 20.8266 4.55964 21.0446 4.27764 21.0446C4.21172 21.0456 4.14628 21.0333 4.08519 21.0085C4.0241 20.9837 3.9686 20.9469 3.92199 20.9003C3.87537 20.8537 3.83857 20.7982 3.81378 20.7371C3.78899 20.676 3.7767 20.6105 3.77764 20.5446C3.77764 20.2626 3.99564 20.0436 4.27764 20.0436Z" fill="black"/>
</svg>
