<svg width="24" height="24" viewBox="0 0 24 24" fill="none" xmlns="http://www.w3.org/2000/svg">
<g clip-path="url(#clip0_502_469)">
<path d="M11.9992 0.000244141C5.38274 0.000244141 0.000244141 5.38324 0.000244141 11.9997C0.000244141 18.6162 5.38324 23.9992 11.9992 23.9992C18.6162 23.9992 23.9997 18.6162 23.9997 11.9997C23.9997 5.38324 18.6162 0.000244141 11.9992 0.000244141ZM11.9997 22.3647C6.28474 22.3647 1.63474 17.7147 1.63474 11.9997C1.63474 6.28474 6.28474 1.63474 11.9997 1.63474C17.7147 1.63474 22.3647 6.28474 22.3647 11.9997C22.3647 17.7147 17.7147 22.3647 11.9997 22.3647Z" fill="black"/>
<path d="M12.0001 3.3396C7.22509 3.3396 3.34009 7.2246 3.34009 11.9996C3.34009 16.7746 7.22509 20.6596 12.0001 20.6596C16.7751 20.6596 20.6601 16.7746 20.6601 11.9996C20.6601 7.2246 16.7751 3.3396 12.0001 3.3396ZM5.67559 7.7251L7.06159 7.4176L6.61659 6.7186L7.31559 7.1636L7.62359 5.7776L7.93109 7.1636L8.63059 6.7186L8.18559 7.4176L9.57159 7.7251L8.18559 8.0331L8.63059 8.7321L7.93159 8.2871L7.62359 9.6731L7.31559 8.2871L6.61659 8.7321L7.06159 8.0336L5.67559 7.7251ZM9.95959 18.4046L9.32959 18.0036L9.05209 19.2526L8.77459 18.0036L8.14459 18.4046L8.54559 17.7746L7.29659 17.4971L8.54559 17.2196L8.14459 16.5896L8.77459 16.9906L9.05209 15.7421L9.32959 16.9906L9.95959 16.5896L9.55859 17.2196L10.8076 17.4971L9.55859 17.7746L9.95959 18.4046ZM7.05409 15.0426V12.0696L8.57759 11.7726V15.0421H7.05409V15.0426ZM10.8071 15.0426H9.28359V11.6391L10.8071 11.3491V15.0426ZM13.0296 15.0426H11.5061V11.2151L13.0296 10.9181V15.0426ZM15.6006 9.7216L15.2511 9.7881V15.0421H13.7276V10.0776L6.41509 11.4826L15.2736 8.4806L15.1546 8.0271L17.5846 8.5326L15.7191 10.1751L15.6006 9.7216ZM18.8746 11.7671L18.6456 12.7986L18.4166 11.7671L17.8966 12.0981L18.2276 11.5781L17.1966 11.3491L18.2281 11.1201L17.8966 10.6001L18.4171 10.9316L18.6461 9.9001L18.8751 10.9316L19.3951 10.5996L19.0641 11.1196L20.0951 11.3486L19.0641 11.5776L19.3951 12.0981L18.8746 11.7671Z" fill="black"/>
</g>
<defs>
<clipPath id="clip0_502_469">
<rect width="24" height="24" fill="white"/>
</clipPath>
</defs>
</svg>
