<svg width="24" height="24" viewBox="0 0 24 24" fill="none" xmlns="http://www.w3.org/2000/svg">
<g clip-path="url(#clip0_498_397)">
<path d="M22.1288 24.0001H1.87134C1.39134 24.0001 1.00134 23.6101 1.00134 23.1301V8.05506C1.00134 7.57506 1.39134 7.18506 1.87134 7.18506H22.1288C22.6088 7.18506 22.9988 7.57506 22.9988 8.05506V23.1301C22.9988 23.6101 22.6088 24.0001 22.1288 24.0001ZM2.74134 22.2601H21.2626V8.92506H2.74134V22.2601Z" fill="white"/>
<path d="M17.4638 8.92483H3.84384C3.72955 8.9252 3.61632 8.90284 3.51075 8.85907C3.40517 8.81529 3.30934 8.75097 3.22884 8.66983L2.85009 8.29108C2.68509 8.12983 2.59509 7.90858 2.59509 7.67608C2.59509 7.44358 2.68509 7.22608 2.85009 7.06108L9.66384 0.254834C10.0051 -0.082666 10.5526 -0.082666 10.8938 0.254834L18.0788 7.43983C18.3263 7.68733 18.4013 8.06234 18.2663 8.38858C18.1313 8.71108 17.8163 8.92483 17.4638 8.92483ZM5.19009 7.18483H15.3676L10.2788 2.09983L5.19009 7.18483ZM11.2463 14.1861H4.54884C4.06884 14.1861 3.67884 13.7961 3.67884 13.3161C3.67884 12.8361 4.06884 12.4461 4.54884 12.4461H11.2463C11.7263 12.4461 12.1163 12.8361 12.1163 13.3161C12.1163 13.7961 11.7263 14.1861 11.2463 14.1861Z" fill="white"/>
<path d="M17.8613 14.0399C18.613 14.0399 19.2225 13.4304 19.2225 12.6786C19.2225 11.9268 18.613 11.3174 17.8613 11.3174C17.1095 11.3174 16.5 11.9268 16.5 12.6786C16.5 13.4304 17.1095 14.0399 17.8613 14.0399Z" fill="white"/>
<path d="M17.8613 19.8714C18.613 19.8714 19.2225 19.262 19.2225 18.5102C19.2225 17.7584 18.613 17.1489 17.8613 17.1489C17.1095 17.1489 16.5 17.7584 16.5 18.5102C16.5 19.262 17.1095 19.8714 17.8613 19.8714Z" fill="white"/>
</g>
<defs>
<clipPath id="clip0_498_397">
<rect width="24" height="24" fill="white"/>
</clipPath>
</defs>
</svg>
