<svg width="42" height="22" viewBox="0 0 42 22" fill="none" xmlns="http://www.w3.org/2000/svg">
<path fill-rule="evenodd" clip-rule="evenodd" d="M1.14374 21.4814C1.28888 21.6269 1.4613 21.7423 1.65113 21.8211C1.84096 21.8999 2.04446 21.9404 2.24999 21.9404C2.45551 21.9404 2.65901 21.8999 2.84884 21.8211C3.03867 21.7423 3.21109 21.6269 3.35624 21.4814L21 3.83451L38.6437 21.4814C38.789 21.6267 38.9615 21.7419 39.1513 21.8205C39.3411 21.8991 39.5445 21.9396 39.75 21.9396C39.9554 21.9396 40.1589 21.8991 40.3487 21.8205C40.5385 21.7419 40.711 21.6267 40.8562 21.4814C41.0015 21.3361 41.1167 21.1636 41.1954 20.9738C41.274 20.784 41.3145 20.5806 41.3145 20.3751C41.3145 20.1697 41.274 19.9662 41.1954 19.7764C41.1167 19.5866 41.0015 19.4142 40.8562 19.2689L22.1062 0.518887C21.9611 0.373377 21.7887 0.257931 21.5988 0.179161C21.409 0.100391 21.2055 0.059845 21 0.059845C20.7945 0.059845 20.591 0.100391 20.4011 0.179161C20.2113 0.257931 20.0389 0.373377 19.8937 0.518887L1.14374 19.2689C0.998226 19.414 0.882779 19.5865 0.804009 19.7763C0.725239 19.9661 0.684692 20.1696 0.684692 20.3751C0.684692 20.5807 0.725239 20.7842 0.804009 20.974C0.882779 21.1638 0.998226 21.3362 1.14374 21.4814Z" fill="white"/>
</svg>
