<svg width="58" height="52" viewBox="0 0 58 52" fill="none" xmlns="http://www.w3.org/2000/svg">
<path d="M8.71431 4.57185C8.71431 6.17899 8.00003 7.40667 6.57145 8.25488V50.6433C6.57145 50.9334 6.46543 51.1846 6.25337 51.3966C6.04132 51.6087 5.7902 51.7147 5.50003 51.7147H3.35717C3.06699 51.7147 2.81587 51.6087 2.60382 51.3966C2.39177 51.1846 2.28574 50.9334 2.28574 50.6433V8.25488C0.857169 7.40667 0.142883 6.17899 0.142883 4.57185C0.142883 3.38881 0.56141 2.37877 1.39846 1.54171C2.23552 0.70466 3.24556 0.286133 4.4286 0.286133C5.61163 0.286133 6.62168 0.70466 7.45873 1.54171C8.29578 2.37877 8.71431 3.38881 8.71431 4.57185ZM58 6.7147V32.2616C58 32.8196 57.8605 33.2493 57.5815 33.5506C57.3025 33.852 56.8616 34.1589 56.259 34.4714C51.4598 37.0607 47.3415 38.3553 43.904 38.3553C42.5424 38.3553 41.1641 38.1098 39.769 37.6187C38.3739 37.1276 37.163 36.5919 36.1362 36.0116C35.1094 35.4312 33.8203 34.8955 32.269 34.4044C30.7177 33.9134 29.1273 33.6678 27.4978 33.6678C23.2121 33.6678 18.0335 35.2973 11.9621 38.5562C11.5826 38.7571 11.2143 38.8576 10.8572 38.8576C10.2768 38.8576 9.77458 38.6455 9.35047 38.2214C8.92636 37.7973 8.71431 37.2951 8.71431 36.7147V11.871C8.71431 11.1567 9.06029 10.5428 9.75226 10.0294C10.221 9.71694 11.1027 9.23702 12.3973 8.5897C17.6652 5.91113 22.3639 4.57185 26.4933 4.57185C28.8817 4.57185 31.1139 4.89551 33.1898 5.54283C35.2657 6.19015 37.7098 7.17229 40.5223 8.48926C41.3706 8.91336 42.3527 9.12542 43.4688 9.12542C44.6741 9.12542 45.9855 8.89104 47.4029 8.42229C48.8203 7.95354 50.048 7.42899 51.086 6.84863C52.1239 6.26827 53.1061 5.74372 54.0324 5.27497C54.9587 4.80622 55.567 4.57185 55.8572 4.57185C56.4375 4.57185 56.9398 4.7839 57.3639 5.20801C57.788 5.63211 58 6.13435 58 6.7147Z" fill="white"/>
</svg>
