<svg width="25" height="25" viewBox="0 0 25 25" fill="none" xmlns="http://www.w3.org/2000/svg">
<path d="M22.9698 14.4959V9.54121C23.2251 9.4869 23.4653 9.37715 23.6735 9.21973C23.8817 9.06232 24.0527 8.86108 24.1745 8.63025C24.2963 8.39943 24.3659 8.14465 24.3784 7.88396C24.3908 7.62327 24.3458 7.36302 24.2466 7.12163C24.1474 6.88025 23.9963 6.66362 23.8041 6.48707C23.6118 6.31053 23.3832 6.17838 23.1342 6.09998C22.8853 6.02158 22.6222 5.99884 22.3635 6.03337C22.1048 6.0679 21.8568 6.15886 21.6372 6.2998L18.0948 2.75746C18.8448 1.58559 18.0011 0.0185547 16.5948 0.0185547C16.3336 0.018581 16.0757 0.0760429 15.8392 0.186869C15.6027 0.297696 15.3934 0.459175 15.2263 0.659866C15.0591 0.860558 14.9382 1.09555 14.872 1.3482C14.8057 1.60084 14.7959 1.86496 14.8431 2.12184L10.7223 3.83418L9.65358 2.7659C9.82722 2.49692 9.92516 2.18612 9.93709 1.86619C9.94902 1.54626 9.8745 1.22902 9.72138 0.947859C9.56825 0.666698 9.34218 0.432003 9.06694 0.268468C8.79171 0.104932 8.47748 0.0185998 8.15733 0.0185547C6.75108 0.0185547 5.90311 1.5823 6.65733 2.75746L3.11498 6.2998C2.87029 6.14372 2.59115 6.04979 2.30187 6.0262C2.01259 6.0026 1.72192 6.05005 1.45516 6.16442C1.18841 6.27879 0.953636 6.45661 0.771281 6.68242C0.588925 6.90822 0.46451 7.17516 0.40886 7.46002C0.35321 7.74488 0.368012 8.03902 0.451976 8.31685C0.53594 8.59468 0.686525 8.84779 0.890626 9.05414C1.09473 9.2605 1.34616 9.41386 1.62305 9.50087C1.89995 9.58788 2.19391 9.60592 2.47936 9.5534L3.50452 12.0186L2.47936 14.4856C2.19377 14.4327 1.89957 14.4504 1.62239 14.5372C1.34521 14.624 1.09347 14.7773 0.889096 14.9837C0.684722 15.1901 0.533919 15.4433 0.449825 15.7213C0.365731 15.9993 0.350899 16.2937 0.406621 16.5787C0.462342 16.8638 0.586927 17.1309 0.769519 17.3568C0.952112 17.5827 1.18717 17.7605 1.45422 17.8747C1.72127 17.9889 2.0122 18.0361 2.30166 18.0122C2.59113 17.9882 2.87034 17.8939 3.11498 17.7373L6.65733 21.2796C6.51638 21.4993 6.42542 21.7473 6.39089 22.006C6.35636 22.2646 6.3791 22.5278 6.4575 22.7767C6.5359 23.0256 6.66805 23.2543 6.8446 23.4465C7.02114 23.6388 7.23777 23.7898 7.47916 23.8891C7.72054 23.9883 7.98079 24.0333 8.24148 24.0208C8.50218 24.0084 8.75695 23.9388 8.98778 23.817C9.2186 23.6952 9.41984 23.5242 9.57726 23.316C9.73467 23.1078 9.84442 22.8676 9.89873 22.6123H14.8534C14.946 23.0422 15.1944 23.4227 15.5507 23.6805C15.9069 23.9382 16.346 24.0551 16.7833 24.0085C17.2206 23.962 17.6252 23.7553 17.9193 23.4283C18.2133 23.1013 18.376 22.6771 18.376 22.2373C18.376 21.7975 18.2133 21.3733 17.9193 21.0463C17.6252 20.7193 17.2206 20.5126 16.7833 20.4661C16.346 20.4195 15.9069 20.5364 15.5507 20.7941C15.1944 21.0519 14.946 21.4324 14.8534 21.8623H10.0365L21.1309 17.2521C22.1148 18.6748 24.3761 17.9834 24.3761 16.2373C24.3755 15.8302 24.2357 15.4355 23.9799 15.1187C23.7241 14.802 23.3677 14.5822 22.9698 14.4959ZM3.90952 15.9195L4.94733 15.4911L7.09514 20.6586L3.64842 17.2118C3.89841 16.8307 3.99191 16.3678 3.90952 15.9195ZM13.6886 7.8598L12.0901 11.7317L5.3528 14.5123L4.31686 12.0186L6.68264 6.32512L10.548 4.71918L13.6886 7.8598ZM17.2867 10.3976L19.4008 9.52481L21.5237 14.6342L17.2867 10.3976ZM20.0936 9.23887L21.13 8.8109C21.3863 9.18488 21.7764 9.44614 22.2198 9.54074V14.3581L20.0936 9.23887ZM20.8436 8.11762L19.8058 8.54605L17.657 3.37855L21.1037 6.82527C20.8538 7.20645 20.7602 7.66929 20.8426 8.11762H20.8436ZM16.278 3.55246C16.4895 3.59108 16.7063 3.59108 16.9178 3.55246L19.1115 8.83105L16.7111 9.82199L14.5717 7.68215L16.278 3.55246ZM15.9611 10.1332L13.068 11.3276L14.2623 8.43449L15.9611 10.1332ZM11.6861 12.7114L8.47514 20.4851C8.26366 20.446 8.04678 20.446 7.8353 20.4851L5.64061 15.2061L11.6861 12.7114ZM9.62358 21.2248C9.50092 21.0487 9.34772 20.896 9.17123 20.7739L12.6667 12.3078L16.5348 10.7061L21.0986 15.2698C20.8517 15.6507 20.7603 16.1117 20.8431 16.5579L9.62358 21.2248ZM15.1319 2.81418C15.2546 2.99032 15.4078 3.14318 15.5842 3.26559L13.997 7.10934L11.298 4.40793L15.1319 2.81418ZM7.09045 5.34543L7.8353 3.5534C8.28154 3.63613 8.74253 3.5447 9.12342 3.29793L9.9728 4.14777L7.09045 5.34543ZM3.73608 6.73762L7.09514 3.37855L6.11077 5.75137L3.73608 6.73762ZM3.17358 9.26371C3.45566 9.06887 3.67536 8.7966 3.80619 8.47971C3.93702 8.16283 3.97339 7.81486 3.91092 7.47777L5.70295 6.73293L3.91045 11.0412L3.17358 9.26371ZM4.65998 14.7982L3.62264 15.2267C3.50053 15.0502 3.34781 14.897 3.1717 14.7743L3.91045 12.9959L4.65998 14.7982Z" fill="white"/>
</svg>
